<svg xmlns="http://www.w3.org/2000/svg" width="200" height="200" viewBox="0 0 200 200">
<!-- SVG created with Arrow, by QuiverAI (https://quiver.ai) -->
  <path d="m100 195c52.47 0 95-42.53 95-95s-42.53-95-95-95-95 42.53-95 95 42.53 95 95 95z" fill="#f00"/>
  <path d="m163.4 22.21c-6.3-6.52-19.81 1.41-38.1 20.74-7.47-2.93-16.79-4.13-25.15-2.89-8.36-1.24-17.68-0.04-25.15 2.89-17.76-21.52-29.7-24.23-34.79-23.07-8.97 2.18-10.13 16.75-7.77 37.11 0.5 4.23 1.4 6.92 1.21 9.17-0.44 5.19 2.22 12.66 3.39 15.46-7.89 13.55-9.05 28.16-9.05 35.68 0 7.46 1.34 14.76 3.98 20.71l-3.98 1.3 4.84-0.53c2.77 6.69 5.47 12.13 7.81 16.84l-2.96 1.44 5.23-0.29c11.19 11.97 26.33 19.05 45.08 21.45 1.44 0.2 3.2 0.29 5 0.31 2.73 3.58 5.12 5.35 6.84 5.69l0.7-0.9 1.21 1.21 0.9-0.15c0.82-0.2 1.72-0.63 2.54-1.26l2.07 1.26c1.72-1.26 3.47-3.91 4.68-5.94 11.3-1.68 21.1-5.47 28.91-9.34l-0.51 4.34 2.07-5.51c5.63-3.01 10.83-6.8 15-11.21l4.85 0.7-3.05-3.32c3.83-4.53 8.44-11.25 10.9-16.83l-0.94 0.11c2.27-5.62 2.85-11.36 2.85-19.65 0-11.52-4.06-24.57-10.51-36.4 2.23-4.65 2.93-9.22 2.23-13.56 5.35-18.55 5.2-39.96-0.33-45.56z" fill="#00000A"/>
  <path d="m160 25.06c-6.37-4.98-23.91 7.67-32.97 23.57-8.24-3.86-18.12-5.15-26.95-3.71-8.83-1.44-18.71-0.15-26.95 3.71-9.07-15.9-24.89-24.92-32.15-24.25-8.01 0.76-7.5 23.55-2.31 42.85l0.86 1.05-1.84-0.66c0.28 3.98 1.61 8.55 2.55 11.91 1.87-2.89 4.56-5.82 6.95-8.44-7.35-10.11-9.3-33.04-3.32-39.25 7.03 0.39 17.54 12.03 23.08 22.34l-5.97 4.18-4.89-1.25 2.78 5.04-4.85 4.57-4.33 4.37c-11.21 10.32-17 29.65-17.31 46.84l6.49-2.7-6.57 4.81 4.5-1.13c-0.63 3.08-0.32 4.96 0.19 7.07l-0.98 0.74 2.15 6.44 1.49 3.09 4.14 9.73 2.85 3.2-3.36 0.35 3.79 1.76-2.03 0.43c8.83 10.47 25.86 20.39 44.57 21.99l4.41 0.9 4.69 5.7-1.91-3.55 4.88 4.33 2.07-1.75 2.3 1.44 4.22-5.86c14.81-1.25 33.87-9.8 44.22-20.82l-2.15-0.7 3.95-1.76-1.45-0.86 3.83-3.44c6.1-9.18 9.1-15.23 9.57-26.4l-3.12-2.03 3.16 0.5c-0.27-14.14-5.43-32.3-11.29-39.61l1.76-8.78-1.76 0.86c6.76-11.65 9.69-41.57 3.01-46.82z" fill="#F0A044"/>
  <path d="m157.9 78.67c1.52-5.31 8.87-31.05 5-47.85-2.73-9.84-6.91-7.7-10.16-6.48-8.08 3.08-18.12 11.48-25.39 23.39l-0.43 1.49-1.48-0.9c-8.59-3.48-17.27-4.34-25.31-3.4-9.03-1.56-19.03-0.31-26.8 3.36l-0.59 0.31-0.5-0.86c-7.27-10.54-15.12-18.71-26.45-22.61-5-1.84-8.01-1.37-9.45 5.27-2.81 12.85-0.55 30.31 3.28 40.51l-1.33-2.7c0.43 3.87 1.33 7.89 2.07 10.9 1.76-3.01 4.18-5.66 6.64-8.16-7.3-10.12-8.67-27.93-4.61-38.21 1.6-4.21 5.35-1.48 8.56 0.9 6.33 4.49 11.79 12.03 15.94 20.12l-5.86 4.61-4.89-1.25 2.78 5.04-4.85 4.57-4.33 4.37c-10.55 9.89-16.25 26.88-17.15 43.75l6.95-2.42c2.93-7.03 7.35-10.04 12.89-10.04 7.89 0 11.21 8.71 15.39 12.78 3.28 2.77 8.13 0.5 11.57-1.53-2.39 4.34-3.21 8.99-3.64 15.32 4.14-12.62 14.18-18.64 25.24-18.64 9.96 0 21.83 4.61 27.11 17.85-0.43-5.27-1.61-9.25-4.77-14.41 2.77 2.07 6.87 3.36 9.69 1.29 5.19-3.56 6.72-12.07 15.43-12.42 5.08-0.2 10.39 5 12.58 9.57l4.41-0.47c-1.6-12.85-6.68-25.82-13.52-34.61 1.76 0.47 4.22 1.17 5.98 1.56z" fill="#E6994A"/>
  <path d="m154.9 33.01c-6.17 0-15.27 11.48-22.07 22.3l6.14 4.18 3.94-2.3-3.2 4.1 10.23 10.51c7.23-9.14 8.99-28.87 4.96-38.79z" fill="#B05A28"/>
  <path d="m156.9 57.81 2.14-0.58-2.93 7.15 0.79-6.57z" fill="#E6994A"/>
  <path d="m45.78 35.23 8.44 7.97-3.2-6.09 6.09 7.11 3.83 10.51-1.92-0.55-8 0.55 4.88 7.38-5.78 6.6c2.26-5 5.19-6.25 5.19-6.25l-4.29-7.73 6.75-0.55c-1.17-7.54-8.04-15.9-11.99-18.95z" fill="#893D16"/>
  <path d="m151 36.29-6.8 7.93 6.09-8.28-7.26 7.77-5.28 11.99 3.21-0.97 6.79 0.58-3.55 6.8 4.88 6.8-0.54-2.89-4.34-5.32 3.55-5.39-5.62-1.13c1.17-5.63 6.33-13.95 8.87-17.89z" fill="#00000A"/>
  <path d="m166.3 119-1.25-0.47 2.89 0.83c-0.51 10.15-4.65 19.76-11.72 29.88l-2.23 1.68-2.22 0.23 1.44 0.98c-9.49 9.49-22.03 16.56-36.13 17.89l-6.95-0.59c4.18-1.91 7.26-4.84 8.08-7.42-2.46 1.76-5.39 2.46-8.43 2.07 4.68-2.89 8.12-6.72 8.63-10.94-4.69 4.69-9.85 6.25-16.92 6.25s-12.89-2.03-15.82-6.25c0 3.68 2.31 8.05 6.64 10.63-2.46 0-4.22-0.59-5.7-1.45 1.76 3.52 4.69 5.67 9.1 6.84l-6.6 0.31c-9.49-0.94-18.4-4.88-27.93-10.78l1.76-0.27-5.55-3.21 0.59-1.44-4.34-2.66 0.94-2.07-5.51-1.76 1.45-4.1-3.64 2.82-3.82-6.84 3.24-4.02-4.88 1.75-0.94-4.8 3.16-2.03-4.14 2.85-1.52-9.1 1.17-1.1-1.8-0.15 0.71-3.56-2.07 0.47 2.57-4.41-5.19 1.76c-0.28 0.35-0.74 0.74-1.02 1.09-0.04 10.35 4.53 21.99 11.33 31.8l3.01 1.48-1.99 0.39c9.49 10.04 25.62 19.18 43.2 21.8l5.78 0.98 5 6.24-1.6-3.74 4.61 3.82 2.19-1.95 2.03 1.44 4.18-5.78c13.9-1.56 29.61-9.33 39.8-18.51l-4.88-4.42 6.09 2.27c8.21-9.14 15.2-21.17 15.2-34.73z" fill="#F0D5B2"/>
  <path d="m45.78 117.7 8.13-1.57 0.58-0.58-8.71 2.15z" fill="#C79875"/>
  <path d="m52.73 119.4c-2.46 0.93-4.41 1.79-5 3.24-0.58 1.44 0.75 2.77 1.68 2.19-0.5-1.76 0.86-3.48 3.87-5.43h-0.55z" fill="#C79875"/>
  <path d="m107.9 54.18c-2.93 2.27-5.74 5.74-7.77 9.02l-2.03-6.25 0.62 3.75-6.37-6.09c3.83 4.92 6.02 11.72 7.78 18.2 2.26-7.54 4.53-13.83 7.77-18.63z" fill="#B05A28"/>
  <path d="m80.08 71.02c-6.02 0-9.77 6.79-9.77 9.14 0 4.45 7.81 7.42 13.83 7.42 4.34 0 6.8-1.68 6.8-4.96 0-4.89-5.86-11.6-10.86-11.6z" fill="#00000A"/>
  <path d="m80.12 72.58c-4.81 0-7.74 5.31-7.74 7.15 0 3.47 6.33 5.86 11.14 5.86 3.51 0 5.54-1.29 5.54-3.83 0-3.83-4.84-9.18-8.94-9.18z" fill="#F9FFFA"/>
  <path d="m123.2 70.12c-7.18 0-12.46 8.55-12.46 12.5 0 3.94 4.42 4.96 8.36 4.96 5.55 0 13.75-4.34 13.75-8.28 0-3.95-5.08-9.18-9.65-9.18z" fill="#00000A"/>
  <path d="m123.2 71.91c-5.97 0-10.31 6.8-10.31 10.24 0 2.65 3.52 3.59 6.45 3.59 4.53 0 11.36-3.83 11.36-6.48 0-3.24-4.02-7.35-7.5-7.35z" fill="#F9FFFA"/>
  <path d="m67.07 91.02c-4.34 0.7-5.43 4.92-4.49 6.64 0.58 1.05 1.33 1.25 2.77 1.52 6.49 1.17 12.42 3.91 17.58 6.48 2.77 0.98 4.69-0.54 4.41-2.73-0.58-3.95-12.11-13.24-20.27-11.91z" fill="#00000A"/>
  <path d="m135.2 91.02c-8.16-0.71-19.14 8.2-20.11 11.91-0.67 2.77 1.8 3.32 3.63 2.5 5.35-2.42 10.12-5.12 17.19-6.52 2.03-0.43 3.48-1.72 3.48-3.87 0-2.27-1.76-3.79-4.19-4.02z" fill="#00000A"/>
  <path d="m128.7 132c0 6.25-4.18 11.49-10.78 11.49-3.83 0-9.65-2.58-13.12-4.34-1.33-0.66-1.33-3.91-1.33-3.91 7.26-1.25 12.3-8.32 12.3-13.32 0-5.97-5-8-14.22-8-8.24 0-11.95 2.57-11.95 8.55 0 5.27 4.57 11.21 11.41 12.7 0 1.05-0.28 3.28-1.64 4.18-2.66 1.79-6.57 4.14-12.47 4.14-6.52 0-10.35-4.14-10.35-10.71-1.76 3.21-1.33 12.27 8.6 13.83 0.46 1.33 0.46 3.28 0.86 4.18l1.44-3.83 1.72-0.35 0.47 1.92 1.48-2.43 1.72-0.07 0.86 3.51 2.58-2.26 1.83-0.16-1.83-1.76 4.88 0.59 3.95-0.59-0.9 2.93 3.83-0.74 0.86-1.52 2.57 0.58 1.49-0.58 3.24 4.68 1.21-4.68c8.2-1.76 12.89-7.74 11.29-14.03z" fill="#00000A"/>
  <path d="m94.61 117.4c1.48-1.17 4.06-1.48 7.5-1.48 3.75 0 6.68 0.74 7.5 1.68-3.52 0-7.93-0.32-15-0.2z" fill="#F9FFFA"/>
  <path d="m83.98 129.2c-0.46 0-0.7 0.23-0.7 0.59 0 0.35 0.31 0.58 0.7 0.58 0.4 0 0.71-0.27 0.71-0.58 0-0.32-0.31-0.59-0.71-0.59z" fill="#00000A"/>
  <path d="m87.81 131.1c-0.43 0-0.78 0.32-0.78 0.67s0.35 0.62 0.78 0.62 0.78-0.31 0.78-0.62c0-0.35-0.35-0.67-0.78-0.67z" fill="#00000A"/>
  <path d="m91.09 135.9c-0.31 0-0.58 0.23-0.58 0.51 0 0.27 0.27 0.5 0.58 0.5 0.32 0 0.59-0.23 0.59-0.5 0-0.28-0.27-0.51-0.59-0.51z" fill="#00000A"/>
  <path d="m99.81 147.7c-0.28 0-0.51 0.19-0.51 0.43 0 0.23 0.23 0.43 0.51 0.43 0.27 0 0.5-0.2 0.5-0.43 0-0.24-0.23-0.43-0.5-0.43z" fill="#00000A"/>
  <path d="m102.7 147.7c-0.35 0-0.62 0.23-0.62 0.5 0 0.28 0.27 0.51 0.62 0.51 0.36 0 0.63-0.23 0.63-0.51 0-0.27-0.27-0.5-0.63-0.5z" fill="#00000A"/>
  <path d="m115.2 133.4c-0.35 0-0.62 0.23-0.62 0.51 0 0.27 0.27 0.5 0.62 0.5 0.36 0 0.63-0.23 0.63-0.5 0-0.28-0.27-0.51-0.63-0.51z" fill="#00000A"/>
  <path d="m118.7 129.2c-0.43 0-0.78 0.31-0.78 0.66s0.35 0.63 0.78 0.63 0.78-0.31 0.78-0.63c0-0.35-0.35-0.66-0.78-0.66z" fill="#00000A"/>
  <path d="m121.3 132c-0.51 0-0.94 0.35-0.94 0.78s0.43 0.78 0.94 0.78 0.94-0.35 0.94-0.78-0.43-0.78-0.94-0.78z" fill="#00000A"/>
</svg>